<?xml version="1.0" encoding="UTF-8" standalone="no"?>
<!DOCTYPE svg PUBLIC "-//W3C//DTD SVG 1.1//EN" "http://www.w3.org/Graphics/SVG/1.1/DTD/svg11.dtd">
<svg version="1.1" xmlns="http://www.w3.org/2000/svg" xmlns:xlink="http://www.w3.org/1999/xlink" preserveAspectRatio="xMidYMid meet" viewBox="196.76417266187036 188.88251798561163 150 182.33812949640281" width="150" height="182.34"><defs><path d="M346.76 296.22C346.76 337.61 313.16 371.22 271.76 371.22C230.37 371.22 196.76 337.61 196.76 296.22C196.76 254.83 230.37 221.22 271.76 221.22C313.16 221.22 346.76 254.83 346.76 296.22Z" id="ej6sO9jPK"></path><clipPath id="clipa3mQAMYNE"><use xlink:href="#ej6sO9jPK" opacity="1"></use></clipPath><path d="M279.63 188.88C283.78 188.88 287.13 192.24 287.13 196.38C287.13 216.35 287.13 268.75 287.13 288.72C287.13 292.86 283.78 296.22 279.63 296.22C274.99 296.22 268.54 296.22 263.89 296.22C259.75 296.22 256.39 292.86 256.39 288.72C256.39 268.75 256.39 216.35 256.39 196.38C256.39 192.24 259.75 188.88 263.89 188.88C268.54 188.88 274.99 188.88 279.63 188.88Z" id="axh6cT6yD"></path><clipPath id="clipeITkQ5lDD"><use xlink:href="#axh6cT6yD" opacity="1"></use></clipPath></defs><g><g><use xlink:href="#ej6sO9jPK" opacity="1" fill="#00ff3e" fill-opacity="0"></use><g clip-path="url(#clipa3mQAMYNE)"><use xlink:href="#ej6sO9jPK" opacity="1" fill-opacity="0" stroke="#00ff3e" stroke-width="40" stroke-opacity="1"></use></g></g><g><use xlink:href="#axh6cT6yD" opacity="1" fill="#00ff3e" fill-opacity="1"></use><g clip-path="url(#clipeITkQ5lDD)"><use xlink:href="#axh6cT6yD" opacity="1" fill-opacity="0" stroke="#000000" stroke-width="8" stroke-opacity="1"></use></g></g></g></svg>